<?xml version="1.0" encoding="utf-8" standalone="no"?>
<svg version="1.1" viewBox="0 0 32 32" xmlns="http://www.w3.org/2000/svg">
  <rect style="fill:#ffffff;opacity:0" width="32" height="32"/>
  <path style="fill:#000000" d="M 16,1.05 C 7.743,1.05 1.05,7.744 1.05,16 1.05,24.257 7.743,30.95 16,30.95 24.257,30.95 30.95,24.257 30.95,16 30.95,7.744 24.257,1.05 16,1.05 Z m 8.736,17.567 -6.116,0.003 v 6.11 c 0,1.028 -0.84,1.87 -1.87,1.87 h -1.5 c -1.028,0 -1.87,-0.84 -1.87,-1.87 V 18.62 H 7.27 C 6.242,18.62 5.4,17.78 5.4,16.75 v -1.5 c 0,-1.028 0.84,-1.87 1.87,-1.87 h 6.11 V 7.27 c 0,-1.028 0.84,-1.87 1.87,-1.87 h 1.5 c 1.028,0 1.87,0.84 1.87,1.87 v 6.11 h 6.11 c 1.028,0 1.87,0.84 1.87,1.87 v 1.5 c 0,1.028 -0.84,1.87 -1.87,1.87 z"/>
</svg>
