<?xml version="1.0" encoding="UTF-8" standalone="no"?>
<svg
    version="1.1"
    viewBox="0 0 32 32"
    xmlns="http://www.w3.org/2000/svg">
  <rect
      style="opacity:0;fill:#ffffff"
      width="32"
      height="32"/>
  <path
      style="fill:#000000"
      d="m 16,1.051 c -8.257,0 -14.95,6.694 -14.95,14.95 0,8.257 6.693,14.95 14.95,14.95 8.257,0 14.95,-6.693 14.95,-14.95 C 30.95,7.745 24.257,1.051 16,1.051 Z m 8.736,17.567 -6.123116,0.0066 0.0031,6.113397 c 0,1.028 -0.841,1.869 -1.869,1.869 h -1.495 c -1.028,0 -1.869,-0.841 -1.869,-1.869 L 13.368258,18.619753 7.264,18.618 c -1.028,0 -1.869,-0.841 -1.869,-1.869 v -1.495 c 0,-1.028 0.841,-1.869 1.869,-1.869 L 13.38628,13.384612 13.384,7.265 c 0,-1.028 0.841,-1.869 1.869,-1.869 h 1.495 c 1.028,0 1.869,0.841 1.869,1.869 l 0.0053,6.108657 L 24.737,13.385 c 1.028,0 1.869,0.841 1.869,1.869 v 1.495 c -0.001,1.028 -0.842,1.869 -1.87,1.869 z"/>
</svg>
