<?xml version="1.0" encoding="UTF-8" standalone="no"?>
<svg
    viewBox="0 0 16 28"
    version="1.1"
    xmlns="http://www.w3.org/2000/svg">
  <rect
      style="fill:#ffffff;opacity:0"
      width="16"
      height="28"/>
  <g
      style="fill:#ffffff">
    <path
        d="M 13.75,0.25 l 0.75,0.75 -3.25,3.25 h -6.5 l -3.25,-3.25 0.75,-0.75 Z"
        style="fill-opacity:1"/>
    <path
        d="M 0.25,12.5 v -10.25 l 0.75,-0.75 3.25,3.25 v 5.75 l -2.75,2.75 h -0.5 Z"
        style="fill-opacity:1"/>
    <path
        d="M 11.75,10.5 v -5.75 l 3.25,-3.25 l 0.75,0.75 v 10.25 l -0.75,0.75 h -0.5 Z"
        style="fill-opacity:1"/>
    <path
        d="M 1.75,14 l 2,-2 h 8.5 l 2,2 -2,2 h -8.5 Z"
        style="fill-opacity:1"/>
    <path
        d="M 0.25,25.75 v -10.25 l 0.75,-0.75 h 0.5 l 2.75,2.75 v 5.75 l -3.25,3.25 Z"
        style="fill-opacity:1"/>
    <path
        d="M 15.75,15.5 v 10.25 l -0.75,0.75 l -3.25,-3.25 v -5.75 l 2.75,-2.75 h 0.5 Z"
        style="fill-opacity:1"/>
    <path
        d="M 13.75,27.75 h -11.5 l -0.75,-0.75 3.25,-3.25 h 6.5 l 3.25,3.25 Z"
        style="fill-opacity:1"/>
  </g>
</svg>
