<?xml version="1.0" encoding="UTF-8" standalone="no"?>
<svg
    xmlns:svg="http://www.w3.org/2000/svg"
    xmlns="http://www.w3.org/2000/svg"
    xmlns:sodipodi="http://sodipodi.sourceforge.net/DTD/sodipodi-0.dtd"
    xmlns:inkscape="http://www.inkscape.org/namespaces/inkscape"
    width="86"
    height="86"
    version="1.1"
    sodipodi:docname="harbour-counter.svg">
  <defs>
    <linearGradient
        id="gradient"
        gradientUnits="userSpaceOnUse"
        x1="43"
        y1="86"
        x2="43"
        y2="0">
      <stop
          offset="0"
          style="stop-color:#534054;stop-opacity:1"/>
      <stop
          offset="1"
          style="stop-color:#7a6e6f;stop-opacity:1"/>
    </linearGradient>
  </defs>
  <g>
    <rect
        height="86"
        width="86"
        style="opacity:0;fill:#ffffff"
        x="0"
        y="0"/>
    <circle
        r="42.7"
        cy="43"
        cx="43"
        style="fill:url(#gradient)"/>
    <path
        style="fill:#f9f8d9;fill-opacity:1;fill-rule:evenodd;stroke:none"
        d="m 42.93916,23.05677 a 4,4 0 0 0 -3.93916,4 V 39 H 27.057531 a 4,4 0 1 0 0,8 H 39 v 11.9437 a 4,4 0 1 0 8,0 V 47 h 11.942469 a 4,4 0 1 0 0,-8 H 47 V 27.05677 a 4,4 0 0 0 -4,-4 z"
        inkscape:connector-curvature="0"/>
    <circle
        style="opacity:0.25;fill:#f9f8d9"
        cx="43"
        cy="43"
        r="32"/>
  </g>
</svg>
